<svg width="24" height="24" viewBox="0 0 24 24" fill="none" xmlns="http://www.w3.org/2000/svg">
<path fill-rule="evenodd" clip-rule="evenodd" d="M14.3022 0.513213C13.0322 -0.171071 11.4985 -0.171071 10.2284 0.513213L2.86522 4.48024C1.4933 5.21939 0.639282 6.64243 0.639282 8.18931V15.6972C0.639282 17.244 1.4933 18.6671 2.86522 19.4062L10.2284 23.3733C11.4985 24.0575 13.0322 24.0575 14.3022 23.3733L21.6654 19.4062C23.0373 18.6671 23.8913 17.244 23.8913 15.6972V8.18931C23.8913 6.64243 23.0373 5.21939 21.6654 4.48024L14.3022 0.513213ZM12.2652 16.1925C14.7723 16.1925 16.8046 14.1794 16.8046 11.6962C16.8046 9.21303 14.7723 7.2 12.2652 7.2C9.7581 7.2 7.72572 9.21303 7.72572 11.6962C7.72572 14.1794 9.7581 16.1925 12.2652 16.1925Z" fill="#2E2C34"/>
</svg>
